<svg width="188" height="27" viewBox="0 0 188 27" fill="none" xmlns="http://www.w3.org/2000/svg">
<path d="M8.63333 18.8733C9.90889 18.8733 10.9044 18.2356 11.62 16.96C12.3356 15.6533 12.8489 13.8178 13.16 11.4533C13.5022 9.05778 13.4867 7.22222 13.1133 5.94667C12.74 4.64 11.9311 3.98667 10.6867 3.98667C9.47333 3.98667 8.50889 4.64 7.79333 5.94667C7.07778 7.22222 6.54889 9.05778 6.20667 11.4533C5.86444 13.8178 5.86444 15.6533 6.20667 16.96C6.54889 18.2356 7.35778 18.8733 8.63333 18.8733ZM12.5067 21.3467C13.3778 22.2178 14.4511 22.9178 15.7267 23.4467L13.3467 26.4333C12.32 26.2156 11.1067 25.5156 9.70667 24.3333C9.14667 23.8356 8.61778 23.1978 8.12 22.42C2.73778 22.42 0.56 18.7644 1.58667 11.4533C2.11556 7.65778 3.20444 4.87333 4.85333 3.1C6.50222 1.32667 8.61778 0.44 11.2 0.44C13.8133 0.44 15.6956 1.32667 16.8467 3.1C17.9978 4.87333 18.3089 7.65778 17.78 11.4533C17.0644 16.4622 15.3067 19.76 12.5067 21.3467ZM21.9748 0.813334H26.4548L24.8681 12.1067C24.4637 14.5022 24.3237 16.0889 24.4481 16.8667C24.6037 17.6444 24.837 18.1733 25.1481 18.4533C25.4904 18.7333 25.9726 18.8733 26.5948 18.8733C28.2748 18.8733 29.317 17.6133 29.7215 15.0933C29.877 14.2533 30.0481 13.2578 30.2348 12.1067L31.7748 0.813334H36.2081L34.6215 12.1067C34.1237 15.84 33.237 18.4844 31.9615 20.04C30.6859 21.6267 28.7415 22.42 26.1281 22.42C23.577 22.42 21.8504 21.6267 20.9481 20.04C20.0459 18.4533 19.8437 15.8089 20.3415 12.1067L21.9748 0.813334ZM43.3015 10.66L45.2615 10.7533C47.0348 10.7533 48.0926 9.64889 48.4348 7.44C48.8081 5.16889 47.9992 4.03333 46.0081 4.03333C45.5415 4.03333 44.9348 4.06444 44.1881 4.12667L43.3015 10.66ZM44.4681 13.9733L42.8348 13.9267L41.7148 22H37.4681L40.4548 0.813334C40.4548 0.813334 42.3526 0.766667 46.1481 0.673333C48.8548 0.673333 50.7215 1.18667 51.7481 2.21333C52.837 3.24 53.2259 5.01333 52.9148 7.53333C52.6659 9.21333 52.1215 10.5356 51.2815 11.5C50.4415 12.4333 49.5237 13.0556 48.5281 13.3667L51.4681 22H46.7081L44.4681 13.9733ZM65.6022 4.96667C65.3844 5.49556 65.1355 6.16444 64.8555 6.97333C64.5755 7.78222 64.2644 8.65333 63.9222 9.58667C63.58 10.4889 63.2222 11.4378 62.8489 12.4333C62.5067 13.3978 62.1489 14.3467 61.7755 15.28H66.3489C66.2867 14.3467 66.2089 13.3978 66.1155 12.4333C66.0222 11.4378 65.9444 10.4889 65.8822 9.58667C65.82 8.65333 65.7578 7.78222 65.6955 6.97333C65.6333 6.16444 65.6022 5.49556 65.6022 4.96667ZM63.5955 0.813334H68.9622L71.7622 22H67.0489L66.6289 18.3133H60.7022L59.2089 22H54.7289L63.5955 0.813334ZM80.2885 0.813334L85.0951 14.1133H85.1418C85.204 13.9267 85.2818 13.1489 85.3751 11.78L86.9151 0.813334H90.8818L87.8951 22H83.9285L78.9818 8.65333C78.9507 8.87111 78.9196 9.19778 78.8885 9.63333C78.8573 10.0689 78.7951 10.5356 78.7018 11.0333L77.2085 22H73.2885L76.2751 0.813334H80.2885ZM114.684 4.96667C114.466 5.49556 114.218 6.16444 113.938 6.97333C113.658 7.78222 113.346 8.65333 113.004 9.58667C112.662 10.4889 112.304 11.4378 111.931 12.4333C111.589 13.3978 111.231 14.3467 110.858 15.28H115.431C115.369 14.3467 115.291 13.3978 115.198 12.4333C115.104 11.4378 115.026 10.4889 114.964 9.58667C114.902 8.65333 114.84 7.78222 114.778 6.97333C114.715 6.16444 114.684 5.49556 114.684 4.96667ZM112.678 0.813334H118.044L120.844 22H116.131L115.711 18.3133H109.784L108.291 22H103.811L112.678 0.813334ZM122.37 22L125.357 0.813334H129.837L127.317 18.36H133.617L132.824 22H122.37ZM142.857 18.8733C144.133 18.8733 145.128 18.2356 145.844 16.96C146.559 15.6533 147.073 13.8178 147.384 11.4533C147.726 9.05778 147.71 7.22222 147.337 5.94667C146.964 4.64 146.155 3.98667 144.91 3.98667C143.697 3.98667 142.733 4.64 142.017 5.94667C141.301 7.22222 140.773 9.05778 140.43 11.4533C140.088 13.8178 140.088 15.6533 140.43 16.96C140.773 18.2356 141.581 18.8733 142.857 18.8733ZM145.424 0.44C148.037 0.44 149.919 1.32667 151.07 3.1C152.221 4.87333 152.533 7.65778 152.004 11.4533C151.475 15.2178 150.386 17.9867 148.737 19.76C147.088 21.5333 144.957 22.42 142.344 22.42C136.961 22.42 134.784 18.7644 135.81 11.4533C136.339 7.65778 137.428 4.87333 139.077 3.1C140.726 1.32667 142.841 0.44 145.424 0.44ZM160.953 0.813334L165.759 14.1133H165.806C165.868 13.9267 165.946 13.1489 166.039 11.78L167.579 0.813334H171.546L168.559 22H164.593L159.646 8.65333C159.615 8.87111 159.584 9.19778 159.553 9.63333C159.521 10.0689 159.459 10.5356 159.366 11.0333L157.873 22H153.953L156.939 0.813334H160.953ZM172.888 22L175.875 0.813334H187.308L186.748 4.45333H179.888L179.188 9.35333H184.415L183.948 12.76H178.675L177.881 18.36H184.835L184.368 22H172.888Z" fill="white"/>
</svg>
