<svg width="108" height="16" viewBox="0 0 108 16" fill="none" xmlns="http://www.w3.org/2000/svg">
<path d="M5.05321 10.7533C5.7821 10.7533 6.35098 10.3889 6.75987 9.66001C7.16876 8.91334 7.4621 7.86445 7.63987 6.51334C7.83543 5.14445 7.82654 4.09556 7.61321 3.36668C7.39987 2.62001 6.93765 2.24668 6.22654 2.24668C5.53321 2.24668 4.9821 2.62001 4.57321 3.36668C4.16432 4.09556 3.8621 5.14445 3.66654 6.51334C3.47098 7.86445 3.47098 8.91334 3.66654 9.66001C3.8621 10.3889 4.32432 10.7533 5.05321 10.7533ZM7.26654 12.1667C7.76432 12.6645 8.37765 13.0645 9.10654 13.3667L7.74654 15.0733C7.15987 14.9489 6.46654 14.5489 5.66654 13.8733C5.34654 13.5889 5.04432 13.2245 4.75987 12.78C1.68432 12.78 0.439873 10.6911 1.02654 6.51334C1.32876 4.34445 1.95098 2.75334 2.89321 1.74001C3.83543 0.726675 5.04432 0.220009 6.51987 0.220009C8.01321 0.220009 9.08876 0.726675 9.74654 1.74001C10.4043 2.75334 10.5821 4.34445 10.2799 6.51334C9.87098 9.37556 8.86654 11.26 7.26654 12.1667ZM12.6769 0.433342H15.2369L14.3302 6.88668C14.0991 8.25556 14.0191 9.16223 14.0902 9.60668C14.1791 10.0511 14.3125 10.3533 14.4902 10.5133C14.6858 10.6733 14.9613 10.7533 15.3169 10.7533C16.2769 10.7533 16.8725 10.0333 17.1036 8.59334C17.1925 8.11334 17.2902 7.54445 17.3969 6.88668L18.2769 0.433342H20.8102L19.9036 6.88668C19.6191 9.02001 19.1125 10.5311 18.3836 11.42C17.6547 12.3267 16.5436 12.78 15.0502 12.78C13.5925 12.78 12.6058 12.3267 12.0902 11.42C11.5747 10.5133 11.4591 9.00223 11.7436 6.88668L12.6769 0.433342ZM24.8636 6.06001L25.9836 6.11334C26.9969 6.11334 27.6013 5.48223 27.7969 4.22001C28.0102 2.92223 27.548 2.27334 26.4102 2.27334C26.1436 2.27334 25.7969 2.29112 25.3702 2.32668L24.8636 6.06001ZM25.5302 7.95334L24.5969 7.92668L23.9569 12.54H21.5302L23.2369 0.433342C23.2369 0.433342 24.3213 0.406675 26.4902 0.353342C28.0369 0.353342 29.1036 0.646675 29.6902 1.23334C30.3125 1.82001 30.5347 2.83334 30.3569 4.27334C30.2147 5.23334 29.9036 5.9889 29.4236 6.54001C28.9436 7.07334 28.4191 7.4289 27.8502 7.60668L29.5302 12.54H26.8102L25.5302 7.95334ZM37.6069 2.80668C37.4824 3.1089 37.3402 3.49112 37.1802 3.95334C37.0202 4.41556 36.8424 4.91334 36.6469 5.44668C36.4513 5.96223 36.2469 6.50445 36.0335 7.07334C35.838 7.62445 35.6335 8.16668 35.4202 8.70001H38.0335C37.998 8.16668 37.9535 7.62445 37.9002 7.07334C37.8469 6.50445 37.8024 5.96223 37.7669 5.44668C37.7313 4.91334 37.6957 4.41556 37.6602 3.95334C37.6246 3.49112 37.6069 3.1089 37.6069 2.80668ZM36.4602 0.433342H39.5269L41.1269 12.54H38.4335L38.1935 10.4333H34.8069L33.9535 12.54H31.3935L36.4602 0.433342ZM45.999 0.433342L48.7457 8.03334H48.7723C48.8079 7.92668 48.8523 7.48223 48.9057 6.70001L49.7857 0.433342H52.0523L50.3457 12.54H48.079L45.2523 4.91334C45.2345 5.03779 45.2168 5.22445 45.199 5.47334C45.1812 5.72223 45.1457 5.9889 45.0923 6.27334L44.239 12.54H41.999L43.7057 0.433342H45.999ZM65.6537 2.80668C65.5293 3.1089 65.3871 3.49112 65.2271 3.95334C65.0671 4.41556 64.8893 4.91334 64.6937 5.44668C64.4982 5.96223 64.2937 6.50445 64.0804 7.07334C63.8848 7.62445 63.6804 8.16668 63.4671 8.70001H66.0804C66.0448 8.16668 66.0004 7.62445 65.9471 7.07334C65.8937 6.50445 65.8493 5.96223 65.8137 5.44668C65.7782 4.91334 65.7426 4.41556 65.7071 3.95334C65.6715 3.49112 65.6537 3.1089 65.6537 2.80668ZM64.5071 0.433342H67.5737L69.1737 12.54H66.4804L66.2404 10.4333H62.8537L62.0004 12.54H59.4404L64.5071 0.433342ZM70.0459 12.54L71.7525 0.433342H74.3125L72.8725 10.46H76.4725L76.0192 12.54H70.0459ZM81.7524 10.7533C82.4813 10.7533 83.0502 10.3889 83.4591 9.66001C83.868 8.91334 84.1613 7.86445 84.3391 6.51334C84.5346 5.14445 84.5258 4.09556 84.3124 3.36668C84.0991 2.62001 83.6369 2.24668 82.9258 2.24668C82.2324 2.24668 81.6813 2.62001 81.2724 3.36668C80.8635 4.09556 80.5613 5.14445 80.3658 6.51334C80.1702 7.86445 80.1702 8.91334 80.3658 9.66001C80.5613 10.3889 81.0235 10.7533 81.7524 10.7533ZM83.2191 0.220009C84.7124 0.220009 85.788 0.726675 86.4458 1.74001C87.1035 2.75334 87.2813 4.34445 86.9791 6.51334C86.6769 8.66445 86.0546 10.2467 85.1124 11.26C84.1702 12.2733 82.9524 12.78 81.4591 12.78C78.3835 12.78 77.1391 10.6911 77.7258 6.51334C78.028 4.34445 78.6502 2.75334 79.5924 1.74001C80.5346 0.726675 81.7435 0.220009 83.2191 0.220009ZM92.0927 0.433342L94.8394 8.03334H94.8661C94.9016 7.92668 94.9461 7.48223 94.9994 6.70001L95.8794 0.433342H98.1461L96.4394 12.54H94.1727L91.3461 4.91334C91.3283 5.03779 91.3105 5.22445 91.2927 5.47334C91.275 5.72223 91.2394 5.9889 91.1861 6.27334L90.3327 12.54H88.0927L89.7994 0.433342H92.0927ZM98.9131 12.54L100.62 0.433342H107.153L106.833 2.51334H102.913L102.513 5.31334H105.5L105.233 7.26001H102.22L101.766 10.46H105.74L105.473 12.54H98.9131Z" fill="#FF9822"/>
</svg>
